<?xml version="1.0" encoding="UTF-8" standalone="no"?>
<svg
   id="svg2"
   version="1.1"
   inkscape:version="1.4 (e7c3feb100, 2024-10-09)"
   width="504.92499"
   height="496.92499"
   xml:space="preserve"
   sodipodi:docname="icon.svg"
   xmlns:inkscape="http://www.inkscape.org/namespaces/inkscape"
   xmlns:sodipodi="http://sodipodi.sourceforge.net/DTD/sodipodi-0.dtd"
   xmlns="http://www.w3.org/2000/svg"
   xmlns:svg="http://www.w3.org/2000/svg"
   xmlns:rdf="http://www.w3.org/1999/02/22-rdf-syntax-ns#"
   xmlns:cc="http://creativecommons.org/ns#"
   xmlns:dc="http://purl.org/dc/elements/1.1/"><metadata
     id="metadata8"><rdf:RDF><cc:Work
         rdf:about=""><dc:format>image/svg+xml</dc:format><dc:type
           rdf:resource="http://purl.org/dc/dcmitype/StillImage" /></cc:Work></rdf:RDF></metadata><defs
     id="defs6"><clipPath
       clipPathUnits="userSpaceOnUse"
       id="clipPath18"><path
         d="M 119.8174,144.72 H 351.1829 V 273.7786 H 119.8174 Z"
         clip-rule="evenodd"
         id="path20"
         inkscape:connector-curvature="0" /></clipPath></defs><sodipodi:namedview
     pagecolor="#ffffff"
     bordercolor="#666666"
     borderopacity="1"
     objecttolerance="10"
     gridtolerance="10"
     guidetolerance="10"
     inkscape:pageopacity="0"
     inkscape:pageshadow="2"
     inkscape:window-width="1221"
     inkscape:window-height="720"
     id="namedview4"
     showgrid="false"
     inkscape:zoom="0.5"
     inkscape:cx="380"
     inkscape:cy="141"
     inkscape:window-x="0"
     inkscape:window-y="0"
     inkscape:window-maximized="1"
     inkscape:current-layer="g10"
     fit-margin-top="0"
     fit-margin-left="0"
     fit-margin-right="0"
     fit-margin-bottom="0"
     inkscape:document-rotation="0"
     inkscape:showpageshadow="2"
     inkscape:pagecheckerboard="0"
     inkscape:deskcolor="#d1d1d1" /><g
     id="g10"
     inkscape:groupmode="layer"
     inkscape:label="propuestas logo cnti (3)"
     transform="matrix(1.25,0,0,-1.25,-1313.3787,553.59215)"><path
       id="path28"
       style="fill:#8c4196;fill-opacity:1;fill-rule:nonzero;stroke:none;stroke-width:6.08753"
       d="m 1449.339,280.78159 v 102.49883 c 0,16.98118 -2.3827,32.1787 -16.0894,45.87991 -8.64,8.64734 -20.8571,13.71339 -36.0582,13.71339 -12.8058,0 -27.4073,-5.06605 -37.2436,-14.89559 l -47.6678,13.10646 v -160.303 h 48.8652 v 95.945 c 0,18.46714 13.1047,22.04782 19.6634,22.04782 6.5556,0 19.6652,-3.58068 19.6652,-22.04782 v -95.945 z"
       inkscape:connector-curvature="0" /><path
       id="path30"
       style="fill:#8c4196;fill-opacity:1;fill-rule:nonzero;stroke:none;stroke-width:6.08753"
       d="M 1449.2495,92.711532 V 199.37606 h -48.8658 V 45.333482 c 34.8036,0.426127 48.8658,25.51285 48.8658,47.37805"
       inkscape:connector-curvature="0" /><path
       id="path32"
       style="fill:#8c4196;fill-opacity:1;fill-rule:nonzero;stroke:none;stroke-width:6.08753"
       d="m 1454.6144,242.58172 c 0,16.38824 -13.4065,29.79421 -29.7942,29.79421 -16.39,0 -29.7997,-13.40597 -29.7997,-29.79421 0,-16.38947 13.4097,-29.79604 29.7997,-29.79604 16.3877,0 29.7942,13.40657 29.7942,29.79604"
       inkscape:connector-curvature="0" /><path
       id="path34"
       style="fill:#8c4196;fill-opacity:1;fill-rule:nonzero;stroke:none;stroke-width:6.08753"
       d="m 1386.4669,45.333482 v 41.117631 h -15.4921 c -6.5508,0 -9.8296,3.575208 -9.8296,9.830757 v 65.55542 l 7.4999,11.11462 17.8218,26.42415 h -25.3217 v 70.63243 H 1312.28 c 0,-77.41942 0,-100.33533 0,-177.296958 0,-22.053305 14.2948,-47.37805 49.7577,-47.37805 z"
       inkscape:connector-curvature="0" /><path
       id="path36"
       style="fill:#3194b5;fill-opacity:1;fill-rule:nonzero;stroke:none;stroke-width:6.08753"
       d="m 1183.122,160.77806 -87.767,56.00226 c -4.3799,-2.53972 -9.4545,-3.99464 -14.8523,-3.99464 -16.3883,0 -29.7997,13.40657 -29.7997,29.79604 0,16.38824 13.4114,29.79421 29.7997,29.79421 l 0.9247,-0.0183 21.5803,57.64406 c -9.7011,6.8503 -16.0358,18.14998 -16.0358,30.93319 0,20.89363 16.9404,37.83706 37.8334,37.83706 20.8991,0 37.8425,-16.94343 37.8425,-37.83706 0,-20.90215 -16.9434,-37.84437 -37.8425,-37.84437 -1.3076,0 -2.6,0.0676 -3.8735,0.19663 l -21.5925,-57.67146 c 6.6799,-5.4733 10.9576,-13.77852 10.9576,-23.03644 0,-0.88026 -0.043,-1.75503 -0.1175,-2.61764 l 87.7603,-55.99556 c 10.112,9.54891 23.753,15.40755 38.7605,15.40755 31.1853,0 56.4656,-25.27483 56.4656,-56.46126 0,-31.18887 -25.2803,-56.463692 -56.4656,-56.463692 -31.1846,0 -56.4649,25.274822 -56.4649,56.463692 0,6.24276 1.0167,12.24994 2.8867,17.86326"
       inkscape:connector-curvature="0" /><path
       id="path38"
       style="fill:#8c4196;fill-opacity:1;fill-rule:nonzero;stroke:none;stroke-width:6.08753"
       d="m 1305.0858,299.54885 -33.073,33.07661 c -6.2604,-6.2592 -11.6199,-9.53247 -19.6645,-9.53247 -6.5612,0 -11.0252,2.08133 -15.1976,6.25555 -5.6602,5.95969 -8.0428,16.38764 -8.0428,31.57968 0,15.19753 2.3826,25.63034 8.0428,31.5876 4.1724,4.1724 8.6364,6.25859 15.1976,6.25859 8.0446,0 13.4041,-3.27874 19.6645,-9.53246 l 33.073,33.07113 c -13.1144,13.10767 -30.3945,20.56064 -52.7375,20.56064 -27.7099,0 -72.113,-11.92183 -72.113,-81.9455 0,-70.01758 44.4031,-81.93636 72.113,-81.93636 22.343,0 39.6231,7.45114 52.7375,20.55699"
       inkscape:connector-curvature="0" /></g></svg>
