<?xml version="1.0" encoding="UTF-8" standalone="no"?>
<svg
   xmlns:dc="http://purl.org/dc/elements/1.1/"
   xmlns:cc="http://creativecommons.org/ns#"
   xmlns:rdf="http://www.w3.org/1999/02/22-rdf-syntax-ns#"
   xmlns:svg="http://www.w3.org/2000/svg"
   xmlns="http://www.w3.org/2000/svg"
   xmlns:sodipodi="http://sodipodi.sourceforge.net/DTD/sodipodi-0.dtd"
   xmlns:inkscape="http://www.inkscape.org/namespaces/inkscape"
   id="svg2"
   version="1.1"
   inkscape:version="1.0.2 (e86c870879, 2021-01-15)"
   width="1257.759"
   height="496.92529"
   xml:space="preserve"
   sodipodi:docname="LogoCNTI_(Nuevo).svg"><metadata
     id="metadata8"><rdf:RDF><cc:Work
         rdf:about=""><dc:format>image/svg+xml</dc:format><dc:type
           rdf:resource="http://purl.org/dc/dcmitype/StillImage" /><dc:title /></cc:Work></rdf:RDF></metadata><defs
     id="defs6"><clipPath
       clipPathUnits="userSpaceOnUse"
       id="clipPath18"><path
         d="m 119.8174,144.72 231.3655,0 0,129.0586 -231.3655,0 0,-129.0586 z"
         clip-rule="evenodd"
         id="path20"
         inkscape:connector-curvature="0" /></clipPath></defs><sodipodi:namedview
     pagecolor="#ffffff"
     bordercolor="#666666"
     borderopacity="1"
     objecttolerance="10"
     gridtolerance="10"
     guidetolerance="10"
     inkscape:pageopacity="0"
     inkscape:pageshadow="2"
     inkscape:window-width="1600"
     inkscape:window-height="866"
     id="namedview4"
     showgrid="false"
     inkscape:zoom="0.84758968"
     inkscape:cx="182.36568"
     inkscape:cy="259.06332"
     inkscape:window-x="0"
     inkscape:window-y="0"
     inkscape:window-maximized="1"
     inkscape:current-layer="g10"
     fit-margin-top="0"
     fit-margin-left="0"
     fit-margin-right="0"
     fit-margin-bottom="0"
     inkscape:document-rotation="0" /><g
     id="g10"
     inkscape:groupmode="layer"
     inkscape:label="propuestas logo cnti (3)"
     transform="matrix(1.25,0,0,-1.25,-1313.3787,553.59215)"><path
       id="path28"
       style="fill:#8c4196;fill-opacity:1;fill-rule:nonzero;stroke:none;stroke-width:6.08753"
       d="m 1449.339,280.78159 v 102.49883 c 0,16.98118 -2.3827,32.1787 -16.0894,45.87991 -8.64,8.64734 -20.8571,13.71339 -36.0582,13.71339 -12.8058,0 -27.4073,-5.06605 -37.2436,-14.89559 l -47.6678,13.10646 v -160.303 h 48.8652 v 95.945 c 0,18.46714 13.1047,22.04782 19.6634,22.04782 6.5556,0 19.6652,-3.58068 19.6652,-22.04782 v -95.945 z"
       inkscape:connector-curvature="0" /><path
       id="path30"
       style="fill:#8c4196;fill-opacity:1;fill-rule:nonzero;stroke:none;stroke-width:6.08753"
       d="M 1449.2495,92.711532 V 199.37606 h -48.8658 V 45.333482 c 34.8036,0.426127 48.8658,25.51285 48.8658,47.37805"
       inkscape:connector-curvature="0" /><path
       id="path32"
       style="fill:#8c4196;fill-opacity:1;fill-rule:nonzero;stroke:none;stroke-width:6.08753"
       d="m 1454.6144,242.58172 c 0,16.38824 -13.4065,29.79421 -29.7942,29.79421 -16.39,0 -29.7997,-13.40597 -29.7997,-29.79421 0,-16.38947 13.4097,-29.79604 29.7997,-29.79604 16.3877,0 29.7942,13.40657 29.7942,29.79604"
       inkscape:connector-curvature="0" /><path
       id="path34"
       style="fill:#8c4196;fill-opacity:1;fill-rule:nonzero;stroke:none;stroke-width:6.08753"
       d="m 1386.4669,45.333482 v 41.117631 h -15.4921 c -6.5508,0 -9.8296,3.575208 -9.8296,9.830757 v 65.55542 l 7.4999,11.11462 17.8218,26.42415 h -25.3217 v 70.63243 H 1312.28 c 0,-77.41942 0,-100.33533 0,-177.296958 0,-22.053305 14.2948,-47.37805 49.7577,-47.37805 z"
       inkscape:connector-curvature="0" /><path
       id="path36"
       style="fill:#3194b5;fill-opacity:1;fill-rule:nonzero;stroke:none;stroke-width:6.08753"
       d="m 1183.122,160.77806 -87.767,56.00226 c -4.3799,-2.53972 -9.4545,-3.99464 -14.8523,-3.99464 -16.3883,0 -29.7997,13.40657 -29.7997,29.79604 0,16.38824 13.4114,29.79421 29.7997,29.79421 l 0.9247,-0.0183 21.5803,57.64406 c -9.7011,6.8503 -16.0358,18.14998 -16.0358,30.93319 0,20.89363 16.9404,37.83706 37.8334,37.83706 20.8991,0 37.8425,-16.94343 37.8425,-37.83706 0,-20.90215 -16.9434,-37.84437 -37.8425,-37.84437 -1.3076,0 -2.6,0.0676 -3.8735,0.19663 l -21.5925,-57.67146 c 6.6799,-5.4733 10.9576,-13.77852 10.9576,-23.03644 0,-0.88026 -0.043,-1.75503 -0.1175,-2.61764 l 87.7603,-55.99556 c 10.112,9.54891 23.753,15.40755 38.7605,15.40755 31.1853,0 56.4656,-25.27483 56.4656,-56.46126 0,-31.18887 -25.2803,-56.463692 -56.4656,-56.463692 -31.1846,0 -56.4649,25.274822 -56.4649,56.463692 0,6.24276 1.0167,12.24994 2.8867,17.86326"
       inkscape:connector-curvature="0" /><path
       id="path38"
       style="fill:#8c4196;fill-opacity:1;fill-rule:nonzero;stroke:none;stroke-width:6.08753"
       d="m 1305.0858,299.54885 -33.073,33.07661 c -6.2604,-6.2592 -11.6199,-9.53247 -19.6645,-9.53247 -6.5612,0 -11.0252,2.08133 -15.1976,6.25555 -5.6602,5.95969 -8.0428,16.38764 -8.0428,31.57968 0,15.19753 2.3826,25.63034 8.0428,31.5876 4.1724,4.1724 8.6364,6.25859 15.1976,6.25859 8.0446,0 13.4041,-3.27874 19.6645,-9.53246 l 33.073,33.07113 c -13.1144,13.10767 -30.3945,20.56064 -52.7375,20.56064 -27.7099,0 -72.113,-11.92183 -72.113,-81.9455 0,-70.01758 44.4031,-81.93636 72.113,-81.93636 22.343,0 39.6231,7.45114 52.7375,20.55699"
       inkscape:connector-curvature="0" /><path
       id="path40"
       style="fill:#333333;fill-opacity:1;fill-rule:nonzero;stroke:none;stroke-width:6.08753"
       d="m 1557.926,239.80032 c -1.2492,10.42247 -10.5589,16.04978 -19.9391,16.04978 -15.6322,0 -23.4133,-12.29681 -23.4133,-25.84462 0,-13.54963 7.7811,-25.84583 23.4133,-25.84583 11.6028,0 19.3145,7.78047 20.6343,19.9391 h -4.7246 c -0.9022,-8.82266 -6.7383,-15.90977 -15.9097,-15.90977 -13.1302,0 -18.6882,10.97826 -18.6882,21.8165 0,10.83703 5.558,21.81529 18.6882,21.81529 7.2246,0 13.5478,-4.37816 15.2163,-12.02045 z m 35.3247,-17.85534 c 0.3488,10.07426 -4.2381,20.14852 -15.7704,20.14852 -11.394,0 -16.1879,-9.51847 -16.1879,-18.96632 0,-10.21366 4.7939,-18.96753 16.1879,-18.96753 9.0321,0 13.7566,4.72453 15.6322,12.85382 h -4.3775 c -1.3892,-5.42034 -4.8628,-9.17148 -11.2547,-9.17148 -8.4069,0 -11.741,7.71169 -11.8116,14.10299 z m -27.582,3.68296 c 0.6952,6.53131 4.6557,12.78321 11.8116,12.78321 7.0871,0 11.1853,-6.18311 11.3941,-12.78321 z m 31.5042,-20.42611 h 4.3781 v 20.9125 c 0.1376,7.01649 4.307,12.29682 11.2541,12.29682 7.0871,0 9.1027,-4.65392 9.1027,-10.83885 v -22.37047 h 4.3763 v 23.06627 c 0,8.54507 -3.056,13.8254 -13.1302,13.8254 -5.0715,0 -9.8655,-2.91837 -11.4653,-7.2253 h -0.1376 v 6.18311 h -4.3781 z m 42.4137,46.61894 h -4.3782 v -10.76946 h -6.2513 v -3.68235 h 6.2513 v -24.52423 c -0.069,-6.11432 1.9468,-8.0605 7.7829,-8.0605 1.3198,0 2.5696,0.14001 3.8893,0.14001 v 3.75114 c -1.2491,-0.13819 -2.5001,-0.20881 -3.7511,-0.20881 -3.1272,0.20881 -3.5429,1.87557 -3.5429,4.72454 v 24.17785 h 7.294 v 3.68235 h -7.294 z m 11.7045,-46.61894 h 4.3763 v 19.10572 c 0,7.4341 5.4203,13.27021 13.3408,12.85383 v 4.37632 c -6.4625,0.2776 -11.3252,-3.12655 -13.5496,-8.89388 h -0.1382 v 8.40749 h -4.0293 z m 33.8667,36.89167 c -10.9782,0 -16.9519,-8.68509 -16.9519,-18.96632 0,-10.28245 5.9737,-18.96753 16.9519,-18.96753 10.9765,0 16.9526,8.68508 16.9526,18.96753 0,10.28123 -5.9761,18.96632 -16.9526,18.96632 z m 0,-3.68235 c 8.4075,0 12.5744,-7.6429 12.5744,-15.28397 0,-7.64229 -4.1669,-15.28519 -12.5744,-15.28519 -8.4069,0 -12.5762,7.6429 -12.5762,15.28519 0,7.64107 4.1693,15.28397 12.5762,15.28397 z m 41.6491,-33.20932 h 4.7233 v 41.96319 h 0.1394 l 28.9024,-41.96319 h 5.2803 v 49.60548 h -4.7251 v -41.96258 h -0.1376 l -28.9024,41.96258 h -5.2803 z m 69.1586,13.89419 c 0.069,-7.01589 -5.8361,-11.25403 -12.5056,-11.25403 -4.0981,0 -7.9893,2.70896 -7.9893,7.08711 0,7.01588 9.2409,6.94709 16.6744,8.26748 1.1804,0.2088 3.1272,0.55518 3.6823,1.59737 h 0.1382 z m -18.9663,10.97825 c 0.1382,5.83612 4.1675,8.33688 9.5879,8.33688 5.1403,0 9.3784,-1.45857 9.3784,-7.36531 0,-3.95811 -2.0137,-4.44511 -5.6273,-4.86272 -9.4491,-1.11097 -19.2457,-1.45796 -19.2457,-11.53222 0,-7.22651 5.4203,-10.49125 12.021,-10.49125 6.8783,0 10.0031,2.64016 13.0608,7.2959 h 0.1382 c 0,-3.75357 0.6952,-6.25372 5.1422,-6.25372 1.1803,0 1.8755,0.0688 2.8489,0.27759 v 3.68235 c -0.3488,-0.1394 -0.904,-0.27759 -1.391,-0.27759 -1.7355,0 -2.5689,0.9734 -2.5689,2.64016 v 19.03693 c 0,9.58726 -6.8783,11.53223 -13.2008,11.53223 -8.1987,0 -14.1036,-3.61356 -14.5212,-12.01923 z m 59.8508,-0.27759 c -0.9728,8.19808 -6.8783,12.29682 -14.5206,12.29682 -10.9782,0 -16.9525,-8.68509 -16.9525,-18.96632 0,-10.28245 5.9743,-18.96753 16.9525,-18.96753 7.9893,0 13.6166,5.28032 14.7988,13.89418 h -4.3781 c -0.5558,-5.9737 -5.0022,-10.21184 -10.4207,-10.21184 -8.4075,0 -12.5762,7.6429 -12.5762,15.28519 0,7.64107 4.1687,15.28397 12.5762,15.28397 5.6961,0 8.9627,-3.26535 10.1431,-8.61447 z m 4.5474,-24.59485 h 4.3757 v 35.84948 h -4.3757 z m 0,42.5896 h 4.3757 v 7.01588 h -4.3757 z m 26.0151,-5.69793 c -10.9783,0 -16.9526,-8.68509 -16.9526,-18.96632 0,-10.28245 5.9743,-18.96753 16.9526,-18.96753 10.9764,0 16.9519,8.68508 16.9519,18.96753 0,10.28123 -5.9755,18.96632 -16.9519,18.96632 z m 0,-3.68235 c 8.4069,0 12.5744,-7.6429 12.5744,-15.28397 0,-7.64229 -4.1675,-15.28519 -12.5744,-15.28519 -8.4075,0 -12.5763,7.6429 -12.5763,15.28519 0,7.64107 4.1688,15.28397 12.5763,15.28397 z m 21.4993,-33.20932 h 4.3776 v 20.9125 c 0.1381,7.01649 4.3069,12.29682 11.2546,12.29682 7.0871,0 9.1021,-4.65392 9.1021,-10.83885 v -22.37047 h 4.3763 v 23.06627 c 0,8.54507 -3.056,13.8254 -13.1302,13.8254 -5.0715,0 -9.8649,-2.91837 -11.4647,-7.2253 h -0.1381 v 6.18311 h -4.3776 z m 58.3922,13.89419 c 0.069,-7.01589 -5.8361,-11.25403 -12.5056,-11.25403 -4.0981,0 -7.9893,2.70896 -7.9893,7.08711 0,7.01588 9.2409,6.94709 16.6744,8.26748 1.1804,0.2088 3.1272,0.55518 3.6823,1.59737 h 0.1382 z m -18.9657,10.97825 c 0.1376,5.83612 4.1669,8.33688 9.5873,8.33688 5.1403,0 9.3784,-1.45857 9.3784,-7.36531 0,-3.95811 -2.0137,-4.44511 -5.6273,-4.86272 -9.4491,-1.11097 -19.2451,-1.45796 -19.2451,-11.53222 0,-7.22651 5.4197,-10.49125 12.0204,-10.49125 6.8783,0 10.0031,2.64016 13.0608,7.2959 h 0.1382 c 0,-3.75357 0.6952,-6.25372 5.1422,-6.25372 1.1803,0 1.8755,0.0688 2.8489,0.27759 v 3.68235 c -0.3482,-0.1394 -0.904,-0.27759 -1.391,-0.27759 -1.7355,0 -2.5689,0.9734 -2.5689,2.64016 v 19.03693 c 0,9.58726 -6.8783,11.53223 -13.2008,11.53223 -8.1987,0 -14.1036,-3.61356 -14.5212,-12.01923 z m 30.2532,-24.87244 h 4.3758 v 49.60548 h -4.3758 z m 33.031,17.92535 c 0,7.43409 3.4047,15.28397 11.7428,15.28397 9.3097,0 12.5744,-7.84988 12.5744,-15.28397 0,-7.43349 -3.2647,-15.28519 -12.5744,-15.28519 -8.3381,0 -11.7428,7.8517 -11.7428,15.28519 z m 28.6954,31.68013 h -4.3782 v -20.56369 h -0.1381 c -1.8756,5.14032 -7.0865,7.84988 -12.4363,7.84988 -10.9076,0 -16.1185,-8.82327 -16.1185,-18.96632 0,-10.14487 5.2109,-18.96753 16.1185,-18.96753 5.2097,0 10.9077,3.19595 12.7832,7.85109 h 0.1382 v -6.80891 h 4.0312 z m 36.5739,-32.86233 c 0.3488,10.07426 -4.2381,20.14852 -15.7704,20.14852 -11.394,0 -16.1879,-9.51847 -16.1879,-18.96632 0,-10.21366 4.7939,-18.96753 16.1879,-18.96753 9.0321,0 13.7566,4.72453 15.6322,12.85382 h -4.3775 c -1.3892,-5.42034 -4.8628,-9.17148 -11.2547,-9.17148 -8.4069,0 -11.741,7.71169 -11.8116,14.10299 z m -27.582,3.68296 c 0.6952,6.53131 4.6557,12.78321 11.8116,12.78321 7.0871,0 11.1853,-6.18311 11.3941,-12.78321 z m -516.8206,-50.22032 h 15.701 v -42.1032 h 8.6851 v 42.1032 h 15.7722 v 7.50288 h -40.1583 z m 67.7713,-26.19283 c 1.3198,10.76946 -5.6291,20.98129 -16.9526,20.98129 -10.7,0 -17.3695,-8.75387 -17.3695,-18.96571 0,-11.04765 6.3225,-18.89874 17.5765,-18.89874 7.8517,0 14.5212,4.37754 16.2586,12.22742 h -7.5041 c -1.3892,-3.95872 -4.1675,-5.97431 -8.7545,-5.97431 -6.5983,0 -9.656,5.00274 -9.656,10.63005 z m -26.4016,5.21093 c 0.2088,5.34972 3.9599,9.51847 9.449,9.51847 5.3498,0 8.7539,-4.51574 9.0321,-9.51847 z m 62.6997,2.77835 c -0.7646,8.82327 -7.8517,12.99201 -16.1879,12.99201 -11.8117,0 -17.7166,-8.47628 -17.7166,-19.31452 0,-10.56065 6.1825,-18.54993 17.4384,-18.54993 9.2408,0 15.0076,5.14214 16.4661,14.4518 h -7.9205 c -0.7645,-5.14214 -3.9605,-8.19869 -8.5456,-8.19869 -6.8777,0 -9.5179,6.32312 -9.5179,12.29682 0,10.90764 5.7667,13.06263 9.8649,13.06263 4.3781,0 7.5735,-2.36197 8.1986,-6.74012 z m 4.5486,-23.89965 h 7.9205 v 21.1907 c 0,5.28032 3.403,9.44907 8.6833,9.44907 4.6557,0 6.8783,-2.43319 7.0177,-8.0599 v -22.57987 h 7.9205 v 24.66424 c 0,8.05868 -4.9334,12.22742 -12.7138,12.22742 -4.7252,0 -8.8251,-2.43136 -11.1859,-6.3913 l -0.1394,0.13941 v 5.27911 h -7.5029 z m 54.4305,5.28032 c -7.0871,0 -10.2137,6.4607 -10.2137,12.71442 0,6.18311 3.1266,12.64503 10.2137,12.64503 7.0871,0 10.2118,-6.46192 10.2118,-12.64503 0,-6.25372 -3.1247,-12.71442 -10.2118,-12.71442 z m 0,-6.25311 c 11.5322,0 18.1323,7.92049 18.1323,18.96753 0,10.97643 -6.6001,18.89692 -18.1323,18.89692 -11.5341,0 -18.1342,-7.92049 -18.1342,-18.89692 0,-11.04704 6.6001,-18.96753 18.1342,-18.96753 z m 23.0279,0.97279 h 7.9193 v 49.60608 h -7.9193 z m 31.0866,5.28032 c -7.0865,0 -10.2137,6.4607 -10.2137,12.71442 0,6.18311 3.1272,12.64503 10.2137,12.64503 7.0871,0 10.2125,-6.46192 10.2125,-12.64503 0,-6.25372 -3.1254,-12.71442 -10.2125,-12.71442 z m 0,-6.25311 c 11.5322,0 18.1329,7.92049 18.1329,18.96753 0,10.97643 -6.6007,18.89692 -18.1329,18.89692 -11.5334,0 -18.1341,-7.92049 -18.1341,-18.89692 0,-11.04704 6.6007,-18.96753 18.1341,-18.96753 z m 38.4519,7.22651 c -6.6007,0 -9.4497,5.9743 -9.4497,11.87921 0,5.97552 2.4314,12.50684 9.4497,12.50684 6.8783,0 9.6567,-5.69793 9.6567,-11.88043 0,-6.11371 -2.6402,-12.50562 -9.6567,-12.50562 z m 17.5772,29.66516 h -7.9205 v -4.93212 h -0.1382 c -2.0156,4.02933 -6.1137,5.9049 -10.6313,5.9049 -10.2124,0 -16.2574,-8.33626 -16.2574,-17.99414 0,-10.28306 4.7252,-18.89752 16.1192,-18.89752 4.447,0 8.5451,2.36257 10.7695,6.32312 h 0.1382 v -5.48913 c 0,-5.90552 -2.849,-9.17026 -9.2409,-9.17026 -4.0293,0 -7.6429,0.76277 -8.6145,5.2785 h -7.9205 c 0.6958,-8.40506 8.8233,-11.18523 16.0486,-11.18523 11.3246,0 17.6478,5.34972 17.6478,16.11917 z m 5.0331,4.93333 h 5.7674 l 9.8648,9.93607 h -9.3803 z m 9.1703,-40.85221 v 35.91888 h -7.9193 v -35.91888 z m 28.864,12.08984 c 0,-5.00274 -5.4185,-6.80952 -8.892,-6.80952 -2.7802,0 -7.2959,1.0428 -7.2959,4.58513 0,4.16935 3.0577,5.42034 6.4625,5.97552 3.4735,0.62519 7.2941,0.5558 9.7254,2.15377 z m 7.9205,14.38118 c 0,7.57168 -7.3653,10.42064 -14.3812,10.42064 -7.9205,0 -15.7722,-2.70895 -16.328,-11.94982 h 7.9205 c 0.3488,3.89115 3.4742,5.69793 7.9205,5.69793 3.196,0 7.4341,-0.76399 7.4341,-4.86455 0,-4.65392 -5.0715,-4.02873 -10.7676,-5.07152 -6.6713,-0.76399 -13.8272,-2.22256 -13.8272,-11.18524 0,-7.0177 5.8361,-10.49125 12.298,-10.49125 4.2381,0 9.3097,1.31978 12.4368,4.37754 0.6246,-3.26474 2.9178,-4.37754 6.1137,-4.37754 1.3198,0 3.8206,0.48639 5.0022,0.904 v 5.4873 c -0.8352,-0.13819 -1.4598,-0.13819 -1.9462,-0.13819 -1.458,0 -1.8756,0.7646 -1.8756,2.70956 z m 4.6868,-14.9388 c 0.1394,-8.47446 6.8777,-12.50501 15.9098,-12.50501 7.4341,0 16.0497,3.12656 16.0497,11.67163 0,7.0871 -5.8361,9.17147 -11.6028,10.49186 -5.8361,1.31978 -11.6722,1.87557 -11.6722,5.76672 0,3.12534 4.2381,3.68235 6.5319,3.68235 3.4735,0 6.6001,-1.04219 7.2941,-4.79515 h 8.2668 c -0.9715,7.9911 -7.6404,11.04704 -15.0057,11.04704 -6.5313,0 -15.0076,-2.43136 -15.0076,-10.28245 0,-7.29408 5.6979,-9.37906 11.534,-10.63005 5.7674,-1.31978 11.5323,-1.80678 11.7411,-5.97369 0.2088,-4.09996 -5.0028,-4.72515 -7.9893,-4.72515 -4.2382,0 -7.7117,1.66738 -8.1293,6.2519 z m 61.5882,6.04492 c 0,6.46252 2.6401,13.06263 10.0742,13.06263 6.1137,0 9.9343,-4.72454 9.9343,-12.64503 0,-6.25372 -2.9872,-12.71442 -10.0725,-12.71442 -6.8783,0 -9.936,6.11432 -9.936,12.29682 z m 27.6508,32.02894 h -7.9205 v -18.34173 h -0.1376 c -2.432,3.96055 -7.4341,5.62731 -11.9498,5.62731 -7.8517,0 -15.5634,-5.6961 -15.5634,-18.68811 0,-10.76946 5.4891,-19.17634 16.8144,-19.17634 4.5157,0 9.0314,1.73738 11.1146,5.83551 h 0.1394 v -4.86272 h 7.5029 z m 39.2871,-33.69571 c 1.3198,10.76946 -5.6292,20.98129 -16.9526,20.98129 -10.7006,0 -17.3695,-8.75387 -17.3695,-18.96571 0,-11.04765 6.3225,-18.89874 17.5765,-18.89874 7.8517,0 14.5212,4.37754 16.2586,12.22742 h -7.5047 c -1.3886,-3.95872 -4.1669,-5.97431 -8.7539,-5.97431 -6.5983,0 -9.6561,5.00274 -9.6561,10.63005 z m -26.4017,5.21093 c 0.2089,5.34972 3.96,9.51847 9.4491,9.51847 5.3497,0 8.7539,-4.51574 9.0321,-9.51847 z M 1517.2138,60.976006 h 8.685 v 49.606084 h -8.685 z m 16.2896,0 h 7.9205 v 21.190701 c 0,5.280326 3.4029,9.449069 8.6832,9.449069 4.6558,0 6.8783,-2.433187 7.0183,-8.059894 V 60.976006 h 7.9205 v 24.664248 c 0,8.058675 -4.9333,12.227418 -12.7144,12.227418 -4.7245,0 -8.8245,-2.431361 -11.1852,-6.391301 l -0.14,0.139405 v 5.278499 h -7.5029 z m 34.4207,30.013363 h 5.9068 V 60.976006 h 7.9186 v 30.013363 h 6.7401 v 5.904906 h -6.7401 v 3.682345 c 0,2.98898 1.738,3.75175 3.8912,3.75175 1.5979,0 2.6401,-0.13819 3.6823,-0.41578 v 6.1825 c -1.251,0.34882 -3.0559,0.487 -5.5579,0.487 -5.1403,0 -9.9342,-1.52919 -9.9342,-10.698836 v -2.988979 h -5.9068 z m 39.9823,-24.733037 c -7.0871,0 -10.2142,6.460698 -10.2142,12.714421 0,6.182498 3.1271,12.645023 10.2142,12.645023 7.0871,0 10.2119,-6.462525 10.2119,-12.645023 0,-6.253723 -3.1248,-12.714421 -10.2119,-12.714421 z m 0,-6.253722 c 11.5322,0 18.1324,7.920488 18.1324,18.968143 0,10.97643 -6.6002,18.896919 -18.1324,18.896919 -11.534,0 -18.1347,-7.920489 -18.1347,-18.896919 0,-11.047655 6.6007,-18.968143 18.1347,-18.968143 z m 22.8191,0.973396 h 7.9205 v 17.090748 c 0,7.920489 4.307,12.298034 9.7255,12.298034 1.1116,0 2.2931,-0.208803 3.4047,-0.34699 v 7.641071 c -0.6952,0.07062 -1.1803,0.208803 -2.9871,0.208803 -4.8627,0 -9.5873,-4.098127 -10.4913,-7.920489 h -0.1382 v 6.947092 h -7.4341 z m 22.5416,0 h 7.9205 v 21.32828 c 0,5.976131 3.7517,9.31149 7.8498,9.31149 4.794,0 6.3225,-2.640163 6.3225,-7.5735 v -23.06627 h 7.9205 v 21.050688 c 0,6.04492 2.2932,9.589082 7.6429,9.589082 6.1825,0 6.5295,-3.95994 6.5295,-9.657871 V 60.976006 h 7.9205 v 24.803652 c 0,8.754481 -4.4469,12.088014 -12.0186,12.088014 -5.2115,0 -8.6163,-2.293174 -11.2565,-5.973696 -1.5979,4.098127 -5.6961,5.973696 -10.0736,5.973696 -5.6967,0 -8.6833,-2.431361 -11.0458,-5.973696 h -0.2088 v 5.000299 h -7.5029 z m 80.6926,12.08984 c 0,-5.002734 -5.4185,-6.809514 -8.892,-6.809514 -2.7802,0 -7.2959,1.042186 -7.2959,4.58513 0,4.168742 3.0578,5.41973 6.4625,5.975522 3.4736,0.624581 7.2941,0.555791 9.7254,2.153769 z m 7.9205,14.381187 c 0,7.571674 -7.3647,10.420639 -14.3811,10.420639 -7.9205,0 -15.7722,-2.708952 -16.328,-11.949827 h 7.9205 c 0.3488,3.891151 3.4741,5.697931 7.9204,5.697931 3.196,0 7.4341,-0.764594 7.4341,-4.864548 0,-4.653918 -5.0715,-4.029338 -10.7676,-5.071523 -6.6713,-0.763986 -13.8272,-2.222558 -13.8272,-11.185233 0,-7.017707 5.8361,-10.491862 12.298,-10.491862 4.2382,0 9.3097,1.320386 12.4369,4.378153 0.6245,-3.264744 2.9177,-4.378153 6.1137,-4.378153 1.3197,0 3.8205,0.487002 5.0027,0.904607 v 5.487302 c -0.8352,-0.138187 -1.4604,-0.138187 -1.9468,-0.138187 -1.458,0 -1.8756,0.764594 -1.8756,2.709561 z m 38.8001,-2.571373 c -0.7645,8.823269 -7.8517,12.992012 -16.1879,12.992012 -11.8117,0 -17.7166,-8.476281 -17.7166,-19.314524 0,-10.560652 6.1825,-18.550538 17.439,-18.550538 9.2403,0 15.0076,5.142747 16.4655,14.452411 h -7.9204 c -0.7646,-5.142748 -3.9606,-8.198689 -8.5451,-8.198689 -6.8783,0 -9.5185,6.322511 -9.5185,12.296816 0,10.907641 5.7667,13.062628 9.8649,13.062628 4.3781,0 7.5741,-2.361963 8.1987,-6.740116 z m 4.7575,-23.899654 h 7.9186 v 35.918269 h -7.9186 z m 0,42.103204 h 7.9186 v 7.50288 h -7.9186 z m 25.8062,-1.25099 h 5.7667 l 9.8655,9.93546 h -9.3803 z m 5.2803,-35.571888 c -7.0871,0 -10.2136,6.460698 -10.2136,12.714421 0,6.182498 3.1265,12.645023 10.2136,12.645023 7.0872,0 10.2119,-6.462525 10.2119,-12.645023 0,-6.253723 -3.1247,-12.714421 -10.2119,-12.714421 z m 0,-6.253722 c 11.5323,0 18.133,7.920488 18.133,18.968143 0,10.97643 -6.6007,18.896919 -18.133,18.896919 -11.534,0 -18.1341,-7.920489 -18.1341,-18.896919 0,-11.047655 6.6001,-18.968143 18.1341,-18.968143 z m 22.8192,0.973396 h 7.9205 v 21.190701 c 0,5.280326 3.4029,9.449069 8.6832,9.449069 4.6558,0 6.8783,-2.433187 7.0183,-8.059894 V 60.976006 h 7.9205 v 24.664248 c 0,8.058675 -4.9333,12.227418 -12.7144,12.227418 -4.7245,0 -8.8245,-2.431361 -11.1852,-6.391301 l -0.1401,0.139405 v 5.278499 h -7.5028 z"
       inkscape:connector-curvature="0" /></g></svg>
